<?xml version="1.0" encoding="utf-8"?>
<!-- Generator: Adobe Illustrator 19.1.0, SVG Export Plug-In . SVG Version: 6.00 Build 0)  -->
<svg version="1.1" id="svg14712" xmlns:svg="http://www.w3.org/2000/svg"
	 xmlns="http://www.w3.org/2000/svg" xmlns:xlink="http://www.w3.org/1999/xlink" x="0px" y="0px"
	 viewBox="-2880.3 689.3 216.7 255.7" style="enable-background:new -2880.3 689.3 216.7 255.7;" xml:space="preserve">
<style type="text/css">
	.st0{fill:#003087;}
	.st1{fill:#002F86;}
	.st2{fill:#009CDE;}
	.st3{fill:#012069;}
</style>
<path id="path14499" class="st0" d="M-2695.9,708.6c-11.8-13.5-33.2-19.3-60.6-19.3h-79.5c-5.6,0-10.4,4.1-11.2,9.6l-33.1,209.8
	c-0.7,4.1,2.5,7.9,6.7,7.9h49.1l12.3-78.1l-0.4,2.4c0.9-5.5,5.6-9.6,11.2-9.6h23.3c45.8,0,81.6-18.6,92.1-72.4
	c0.3-1.6,0.6-3.1,0.8-4.7c-1.3-0.7-1.3-0.7,0,0C-2682,734.4-2685.1,720.8-2695.9,708.6"/>
<path id="path14527" class="st0" d="M-2695.9,708.6c-11.8-13.5-33.2-19.3-60.6-19.3h-79.5c-5.6,0-10.4,4.1-11.2,9.6l-33.1,209.8
	c-0.7,4.1,2.5,7.9,6.7,7.9h49.1l12.3-78.1l-0.4,2.4c0.9-5.5,5.6-9.6,11.2-9.6h23.3c45.8,0,81.6-18.6,92.1-72.4
	c0.3-1.6,0.6-3.1,0.8-4.7c-1.3-0.7-1.3-0.7,0,0C-2682,734.4-2685.1,720.8-2695.9,708.6"/>
<path id="path14531" class="st1" d="M-2798.9,754.5c0.5-3.3,2.7-6,5.5-7.4c1.3-0.6,2.8-1,4.3-1h62.3c7.4,0,14.3,0.5,20.5,1.5
	c1.8,0.3,3.6,0.6,5.2,1c1.7,0.4,3.3,0.8,4.9,1.3c0.8,0.2,1.6,0.5,2.4,0.7c3.1,1,6,2.2,8.6,3.6c3.1-19.9,0-33.4-10.8-45.7
	c-11.8-13.5-33.2-19.3-60.6-19.3h-79.5c-5.6,0-10.4,4.1-11.2,9.6l-33.1,209.8c-0.7,4.1,2.5,7.9,6.7,7.9h49.1l12.3-78.1
	L-2798.9,754.5L-2798.9,754.5z"/>
<path id="path14535" class="st2" d="M-2685.1,754.3L-2685.1,754.3c-0.2,1.5-0.5,3.1-0.8,4.7c-10.5,53.8-46.3,72.4-92.1,72.4h-23.3
	c-5.6,0-10.3,4.1-11.2,9.6l-11.9,75.7l-3.4,21.5c-0.6,3.6,2.2,6.9,5.9,6.9h41.3c4.9,0,9.1-3.6,9.8-8.4l0.4-2.1l7.8-49.4l0.5-2.7
	c0.8-4.8,4.9-8.4,9.8-8.4h6.2c40.1,0,71.4-16.3,80.6-63.3c3.8-19.7,1.8-36.1-8.3-47.6C-2676.8,759.5-2680.6,756.6-2685.1,754.3"/>
<path id="path14539" class="st3" d="M-2696,749.9c-1.6-0.5-3.2-0.9-4.9-1.3c-1.7-0.4-3.5-0.7-5.2-1c-6.3-1-13.2-1.5-20.6-1.5h-62.3
	c-1.5,0-3,0.3-4.3,1c-2.9,1.4-5,4.1-5.5,7.4l-13.2,83.9l-0.4,2.4c0.9-5.5,5.6-9.6,11.2-9.6h23.3c45.8,0,81.6-18.6,92.1-72.4
	c0.3-1.6,0.6-3.1,0.8-4.7c-2.7-1.4-5.5-2.6-8.6-3.6C-2694.5,750.4-2695.2,750.1-2696,749.9"/>
</svg>
